<svg width="900" height="363" viewBox="0 0 900 363" fill="none" xmlns="http://www.w3.org/2000/svg">
<path d="M488.914 304.611C481.589 326.111 479.413 337.619 476.034 358.005H500.362H513.241H544.724H554.741H574.776H587.655H600.534H622C615.829 336.436 612.216 324.551 604.828 304.611H488.914Z" fill="#387FF7"/>
<path d="M488.914 306.748C481.589 327.969 479.413 339.327 476.034 359.448H500.362M488.914 306.748H478.896C478.896 306.748 476.034 282.535 493.207 282.535C510.379 282.535 537.569 282.535 537.569 282.535M488.914 306.748H604.828M604.828 306.748H614.845C614.845 306.748 619.138 282.535 600.534 282.535C581.931 282.535 559.034 282.535 559.034 282.535M604.828 306.748C612.216 326.429 615.829 338.16 622 359.448H600.534H587.655M500.362 332.386V359.448M500.362 359.448H513.241H544.724H554.741M587.655 330.962V359.448M587.655 359.448H574.776H554.741M537.569 282.535C537.569 282.535 537.569 38.9742 537.569 26.1553C537.569 13.3364 559.034 11.9121 559.034 26.1553C559.034 40.3985 559.034 282.535 559.034 282.535M537.569 282.535H559.034M554.741 343.781V359.448" stroke="#1A1A1B" stroke-width="5.72414" stroke-linecap="round"/>
<path d="M357.52 253.956C290.258 253.956 288.931 202.148 290.257 117.016H437.654C437.654 202.226 444.358 250.927 374.693 253.956M357.52 253.956C357.52 253.956 357.521 324.816 357.521 346.462C357.52 363.779 374.693 360.893 374.693 346.462C374.693 346.462 374.693 290.082 374.693 253.956M357.52 253.956H374.693M301.71 138.662C301.71 268.537 433.365 264.208 427.641 138.662" stroke="#1A1A1B" stroke-width="5.72414" stroke-linecap="round"/>
<circle cx="841.5" cy="58.5" r="57.5" stroke="#BDD6E3" stroke-width="2"/>
<circle cx="725" cy="109" r="27" stroke="#BDD6E3" stroke-width="2"/>
<circle cx="109" cy="59" r="20" stroke="#BDD6E3" stroke-width="2"/>
<circle cx="804" cy="188" r="20" stroke="#BDD6E3" stroke-width="2"/>
<circle cx="28" cy="108" r="27" stroke="#BDD6E3" stroke-width="2"/>
<circle cx="102" cy="188" r="57" stroke="#BDD6E3" stroke-width="2"/>
</svg>
