<svg width="63" height="82" viewBox="0 0 63 82" fill="none" xmlns="http://www.w3.org/2000/svg">
<path d="M52.1809 37.1087C48.1327 36.4511 17.2331 37.1087 13.7208 37.1087C10.2085 37.1087 9.8798 42.3684 13.7208 42.0395C11.1804 43.2762 10.9196 44.2481 11.7484 46.3128H52.5097C55.9005 46.3128 56.2292 37.7663 52.1809 37.1087Z" fill="#387FF7"/>
<path d="M52.2764 46.3128C55.6672 46.3128 55.9959 37.7663 51.9476 37.1087C47.8994 36.4511 16.9998 37.1087 13.4875 37.1087C9.97517 37.1087 9.64649 42.3684 13.4875 42.0395M52.2764 46.3128C48.8855 46.3128 11.5151 46.3128 11.5151 46.3128M52.2764 46.3128C55.9967 46.3128 55.668 49.9289 52.7087 49.9289M11.5151 46.3128C10.6863 44.2481 10.9471 43.2762 13.4875 42.0395M11.5151 46.3128C8.66085 47.6279 9.31857 53.5448 11.5151 53.5448M13.4875 42.0395H48.1067M11.5151 53.5448C13.7117 53.5448 54.681 53.5448 54.681 53.5448M11.5151 53.5448H1.10059L6.68882 76.5552C7.59619 79.231 8.71567 80.027 11.5151 80.4998H53.367C56.0564 79.9991 57.0249 79.1591 57.6403 76.5552L62.2424 53.5448H54.681M54.681 53.5448C55.2636 51.7201 55.1968 50.819 52.7087 49.9289M52.7087 49.9289H15.2347M5.70266 58.4756H19.8376M6.68882 61.7628H10.3047" stroke="#1A1A1B" stroke-width="1.4" stroke-linecap="round" stroke-linejoin="round"/>
<circle cx="21.8097" cy="17.423" r="4.23079" stroke="#BDD6E3" stroke-width="1.4"/>
<circle cx="32.987" cy="3.61591" r="2.91591" stroke="#BDD6E3" stroke-width="1.4"/>
<path d="M49.0511 22.0251C49.0511 26.9267 45.2207 30.8579 40.5469 30.8579C35.8732 30.8579 32.0428 26.9267 32.0428 22.0251C32.0428 17.1234 35.8732 13.1922 40.5469 13.1922C45.2207 13.1922 49.0511 17.1234 49.0511 22.0251Z" stroke="#BDD6E3" stroke-width="1.4"/>
</svg>
