<svg width="82" height="82" viewBox="0 0 82 82" fill="none" xmlns="http://www.w3.org/2000/svg">
<path d="M80.8001 23.2556C80.8001 27.0481 77.8666 30.0689 74.3125 30.0689C70.7585 30.0689 67.825 27.0481 67.825 23.2556C67.825 19.4631 70.7585 16.4422 74.3125 16.4422C77.8666 16.4422 80.8001 19.4631 80.8001 23.2556Z" stroke="#BDD6E3" stroke-width="1.40001"/>
<path d="M70.7366 7.87149C70.7366 9.85311 69.1221 11.4648 67.1241 11.4648C65.126 11.4648 63.5115 9.85311 63.5115 7.87149C63.5115 5.88987 65.126 4.27813 67.1241 4.27813C69.1221 4.27813 70.7366 5.88987 70.7366 7.87149Z" stroke="#BDD6E3" stroke-width="1.40001"/>
<path d="M58.141 72.9883H5.6719H1C1.90027 76.9013 3.27586 78.6242 7.82817 80.5017H58.141C61.7348 78.7128 64.4584 75.8819 63.891 72.9883H58.141Z" fill="#387FF7"/>
<path d="M14.6583 22.5397C15.377 20.0352 16.4552 17.8885 18.9708 16.0996M7.11136 66.5466C3.16119 64.7931 2.05252 63.2203 1.36133 59.7488H24.0021M7.11136 66.5466H58.5023M7.11136 66.5466H1.36133C1.96722 69.5337 2.32324 71.201 6.03323 72.9866M58.5023 66.5466C61.7629 64.3511 62.7654 62.9058 62.8148 59.7488H39.8147M58.5023 66.5466H62.8148C63.0043 70.0566 61.5606 71.202 58.5023 72.9866M6.03323 72.9866H58.5023M6.03323 72.9866H1.36133C2.2616 76.8996 3.63719 78.6226 8.1895 80.5H58.5023C62.0961 78.7111 64.8198 75.8803 64.2523 72.9866H58.5023" stroke="#1A1A1B" stroke-width="1.40001" stroke-linecap="round" stroke-linejoin="round"/>
<path d="M62.1129 30.7691C62.1129 47.3728 48.5919 60.8382 31.9064 60.8382C15.2209 60.8382 1.7 47.3728 1.7 30.7691C1.7 14.1653 15.2209 0.700004 31.9064 0.700004C48.5919 0.700004 62.1129 14.1653 62.1129 30.7691Z" stroke="#1A1A1B" stroke-width="1.40001"/>
<path d="M54.2085 30.769C54.2085 43.0257 44.2273 52.9669 31.9083 52.9669C19.5894 52.9669 9.60821 43.0257 9.60821 30.769C9.60821 18.5124 19.5894 8.5711 31.9083 8.5711C44.2273 8.5711 54.2085 18.5124 54.2085 30.769Z" stroke="#1A1A1B" stroke-width="1.40001"/>
</svg>
