<svg width="28" height="28" viewBox="0 0 28 28" fill="none" xmlns="http://www.w3.org/2000/svg">
<path d="M14.0078 3.47747C17.4388 3.47747 17.8451 3.49251 19.1944 3.55268C20.4483 3.60783 21.1255 3.81842 21.5769 3.99391C22.1738 4.22456 22.6052 4.50534 23.0516 4.95159C23.5031 5.40285 23.7789 5.82904 24.0097 6.4257C24.1852 6.87696 24.3959 7.55887 24.4511 8.80735C24.5113 10.1611 24.5263 10.5673 24.5263 13.9918C24.5263 17.4214 24.5113 17.8275 24.4511 19.1763C24.3959 20.4298 24.1852 21.1067 24.0097 21.558C23.7789 22.1546 23.498 22.5858 23.0516 23.0321C22.6002 23.4833 22.1738 23.7591 21.5769 23.9897C21.1255 24.1652 20.4433 24.3758 19.1944 24.431C17.84 24.4911 17.4338 24.5062 14.0078 24.5062C10.5769 24.5062 10.1706 24.4911 8.82135 24.431C7.56736 24.3758 6.8902 24.1652 6.43877 23.9897C5.84187 23.7591 5.41049 23.4783 4.96407 23.0321C4.51264 22.5808 4.23676 22.1546 4.00603 21.558C3.83047 21.1067 3.6198 20.4248 3.56462 19.1763C3.50443 17.8225 3.48938 17.4164 3.48938 13.9918C3.48938 10.5623 3.50443 10.1561 3.56462 8.80735C3.6198 7.55385 3.83047 6.87696 4.00603 6.4257C4.23676 5.82904 4.51765 5.39783 4.96407 4.95159C5.41551 4.50033 5.84187 4.22456 6.43877 3.99391C6.8902 3.81842 7.57237 3.60783 8.82135 3.55268C10.1706 3.49251 10.5769 3.47747 14.0078 3.47747ZM14.0078 1.16602C10.5218 1.16602 10.0854 1.18106 8.71601 1.24123C7.35167 1.30139 6.41369 1.52201 5.6011 1.83789C4.7534 2.16882 4.03612 2.60503 3.32385 3.32204C2.60657 4.03402 2.17018 4.75103 1.83913 5.59338C1.52313 6.41066 1.30242 7.34326 1.24223 8.70707C1.18204 10.0809 1.16699 10.5171 1.16699 14.0019C1.16699 17.4866 1.18204 17.9228 1.24223 19.2916C1.30242 20.6554 1.52313 21.5931 1.83913 22.4053C2.17018 23.2527 2.60657 23.9697 3.32385 24.6817C4.03612 25.3937 4.7534 25.8349 5.59608 26.1608C6.41369 26.4767 7.34665 26.6973 8.711 26.7575C10.0804 26.8176 10.5167 26.8327 14.0028 26.8327C17.4889 26.8327 17.9253 26.8176 19.2947 26.7575C20.659 26.6973 21.597 26.4767 22.4096 26.1608C23.2523 25.8349 23.9695 25.3937 24.6818 24.6817C25.3941 23.9697 25.8355 23.2527 26.1615 22.4103C26.4775 21.5931 26.6982 20.6604 26.7584 19.2966C26.8186 17.9278 26.8337 17.4916 26.8337 14.0069C26.8337 10.5221 26.8186 10.0859 26.7584 8.7171C26.6982 7.35329 26.4775 6.41567 26.1615 5.60341C25.8455 4.75103 25.4091 4.03402 24.6918 3.32204C23.9796 2.61005 23.2623 2.16882 22.4196 1.84291C21.602 1.52702 20.669 1.30641 19.3047 1.24624C17.9303 1.18106 17.4939 1.16602 14.0078 1.16602Z" fill="#1A1A1B"/>
<path d="M14 7C10.1354 7 7 10.1354 7 14C7 17.8646 10.1354 21 14 21C17.8646 21 21 17.8646 21 14C21 10.1354 17.8646 7 14 7ZM14 18.5407C11.4928 18.5407 9.45932 16.5072 9.45932 14C9.45932 11.4928 11.4928 9.45932 14 9.45932C16.5072 9.45932 18.5407 11.4928 18.5407 14C18.5407 16.5072 16.5072 18.5407 14 18.5407Z" fill="#1A1A1B"/>
<path d="M22.1663 7.00065C22.1663 7.64669 21.6419 8.16732 20.9997 8.16732C20.3536 8.16732 19.833 7.64289 19.833 7.00065C19.833 6.35461 20.3574 5.83398 20.9997 5.83398C21.6419 5.83398 22.1663 6.35841 22.1663 7.00065Z" fill="#1A1A1B"/>
</svg>
