<svg width="171" height="186" viewBox="0 0 171 186" fill="none" xmlns="http://www.w3.org/2000/svg">
<path d="M50.9976 30.9961C68.1182 30.9961 81.9971 44.8753 81.9971 61.9961C81.9971 79.1169 68.1182 92.9961 50.9976 92.9961C33.877 92.9961 19.998 79.1169 19.998 61.9961C19.998 44.8753 33.877 30.9961 50.9976 30.9961Z" fill="#1D6FFA"/>
<path d="M130.001 137.996C130.001 149.042 121.047 157.996 110.001 157.996C98.9553 157.996 90.001 149.042 90.001 137.996C90.001 126.95 98.9553 117.996 110.001 117.996C121.047 117.996 130.001 126.95 130.001 137.996Z" fill="#387FF7"/>
<path d="M70 127C70 131.971 65.9706 136 61 136C56.0294 136 52 131.971 52 127C52 122.029 56.0294 118 61 118C65.9706 118 70 122.029 70 127Z" fill="#387FF7"/>
</svg>
