<svg width="27" height="31" viewBox="0 0 27 31" fill="none" xmlns="http://www.w3.org/2000/svg">
<path d="M26.1523 21.9289L23.3947 18.6746C22.9486 18.0928 22.2901 17.6832 21.5431 17.5226C20.7961 17.362 20.012 17.4616 19.3381 17.8026L16.7856 19.2064C16.5349 19.3553 16.0335 19.2064 15.6916 18.8022L14.3926 17.2708L10.8601 12.2937C10.7307 12.1346 10.6607 11.9404 10.6607 11.7407C10.6607 11.541 10.7307 11.3468 10.8601 11.1877L13.1391 9.3585C13.6772 8.84861 13.9937 8.17065 14.0274 7.45566C14.0611 6.74066 13.8095 6.0394 13.3214 5.48741L10.9057 2.02045C10.3594 1.26963 9.55569 0.714572 8.62665 0.446493C7.67824 0.140178 6.63888 0.193644 5.73229 0.595381L3.88628 1.46744C-1.51501 4.04107 -0.740142 10.422 2.88351 15.9521C4.62817 18.851 6.65762 21.5924 8.94571 24.1409C13.5038 29.3946 20.0901 32.5212 24.6026 28.246L26.0384 26.8847C26.6999 26.1903 27.0435 25.2817 26.9956 24.3536C27.0072 23.4809 26.7109 22.6289 26.1523 21.9289ZM24.5342 24.8641C24.5417 24.9135 24.5417 24.9636 24.5342 25.013L23.0985 26.3743C19.7255 29.5434 14.8712 26.7571 11.2247 22.6308C10.3587 21.6311 7.41876 18.0153 5.13974 14.5058C2.33654 10.2518 1.33377 5.3598 5.41322 3.46679L7.23644 2.59473H7.41876C7.50925 2.58004 7.60177 2.58004 7.69225 2.59473C8.01003 2.69214 8.28313 2.88705 8.46712 3.14775L11.0424 6.63598C11.1755 6.79355 11.2479 6.98835 11.2479 7.18899C11.2479 7.38963 11.1755 7.58443 11.0424 7.742L8.76339 9.5712C8.20742 10.064 7.86352 10.7295 7.79637 11.4424C7.72922 12.1552 7.94344 12.8665 8.39875 13.4423L11.0424 17.2708L13.6633 20.6314C14.1068 21.2593 14.7931 21.7029 15.5789 21.8694C16.3647 22.0359 17.189 21.9124 17.8795 21.5248L20.432 20.121C20.6366 20.0687 20.8539 20.0799 21.0512 20.1528C21.2484 20.2256 21.415 20.3563 21.5259 20.5251L24.3063 23.7794C24.5153 24.0213 24.6351 24.3196 24.6482 24.6301C24.6276 24.7145 24.5888 24.7941 24.5342 24.8641Z" fill="#1A1A1B"/>
</svg>
