<svg width="57" height="56" viewBox="0 0 57 56" fill="none" xmlns="http://www.w3.org/2000/svg">
<path d="M28.4997 0.0839844C13.366 0.0839844 0.583008 12.867 0.583008 28.0006C0.583008 43.1343 13.366 55.9173 28.4997 55.9173C43.6333 55.9173 56.4163 43.1343 56.4163 28.0006C56.4163 12.867 43.6333 0.0839844 28.4997 0.0839844ZM28.4997 14.0423C33.3209 14.0423 36.8747 17.5933 36.8747 22.4173C36.8747 27.2413 33.3209 30.7923 28.4997 30.7923C23.6813 30.7923 20.1247 27.2413 20.1247 22.4173C20.1247 17.5933 23.6813 14.0423 28.4997 14.0423ZM14.2454 41.3225C16.7495 37.6375 20.9259 35.1808 25.708 35.1808H31.2913C36.0763 35.1808 40.2498 37.6375 42.7539 41.3225C39.1862 45.1415 34.1249 47.5423 28.4997 47.5423C22.8745 47.5423 17.8132 45.1415 14.2454 41.3225Z" fill="#387FF7"/>
</svg>
