<svg width="83" height="82" viewBox="0 0 83 82" fill="none" xmlns="http://www.w3.org/2000/svg">
<path d="M24.3051 63.913C19.7147 61.0881 7.52261 50.1598 6.11674 49.4288C4.71087 48.6978 4.04604 48.8904 4.04604 48.8904M24.3051 63.913C24.3051 63.913 25.2705 65.0411 29.412 66.1177C33.5536 67.1943 49.0837 63.4259 49.0837 63.4259M24.3051 63.913C24.3051 63.913 21.7409 59.0678 26.9175 57.9912M4.04604 48.8904C4.04604 48.8904 2.20764 48.6934 1.45761 49.4289C0.427987 50.4385 1.45761 53.1973 1.45761 53.1973C1.45761 53.1973 7.66996 62.8858 14.9173 68.2693C22.1646 73.6528 34.0714 81.7279 42.8717 81.1897C51.672 80.6514 65.6494 69.3478 73.932 69.3478C82.2147 69.3478 81.1795 69.3478 81.1795 69.3478L82.2148 45.1221C82.2148 45.1221 71.2665 49.7333 64.0962 48.8905C61.4161 48.5755 57.3665 47.2755 57.3665 47.2755C57.3665 47.2755 53.5079 46.6636 51.1544 47.2755C44.9423 48.8905 34.5888 55.8889 34.5888 55.8889M4.04604 48.8904C4.04604 48.8904 2.23835 46.6585 3.01063 45.1221C4.04082 43.0726 8.70505 45.1221 8.70505 45.1221M8.70505 45.1221C8.83541 46.2447 19.9132 55.306 26.9175 57.9912M8.70505 45.1221C8.70505 45.1221 9.40118 43.5263 10.2581 42.9687C12.0472 41.8044 14.4909 43.7899 15.435 44.5819C18.8635 47.4582 32.9616 56.5813 34.5888 55.8889M26.9175 57.9912C29.7478 57.1502 34.5888 55.8889 34.5888 55.8889M74.4497 60.7342V65.5793M78.5911 53.7357V65.041" stroke="#1A1A1B" stroke-width="1.41243" stroke-linecap="round" stroke-linejoin="round"/>
<path d="M82.2148 45.1221L81.1795 69.3478L73.932 69.3478C65.6494 69.3478 51.672 80.6514 42.8717 81.1897C34.0714 81.7279 22.1646 73.6528 14.9173 68.2693C7.66996 62.8858 1.45761 53.1973 1.45761 53.1973C1.45761 53.1973 0.427987 50.4385 1.45761 49.4289C2.20764 48.6934 4.04604 48.8904 4.04604 48.8904C4.04604 48.8904 2.23835 46.6585 3.01063 45.1221C4.04082 43.0726 8.70505 45.1221 8.70505 45.1221C8.70505 45.1221 9.40118 43.5263 10.2581 42.9687C12.0472 41.8044 14.4909 43.7899 15.435 44.5819C18.7925 47.3987 32.3828 56.2065 34.472 55.9195C34.5481 55.8995 34.5888 55.8889 34.5888 55.8889C34.5888 55.8889 44.9423 48.8905 51.1544 47.2755C53.5079 46.6636 57.3665 47.2755 57.3665 47.2755C57.3665 47.2755 61.4161 48.5755 64.0962 48.8905C71.2665 49.7333 82.2148 45.1221 82.2148 45.1221Z" fill="#387FF7"/>
<path d="M24.3051 63.913C19.7147 61.0881 7.52261 50.1598 6.11674 49.4288C4.71087 48.6978 4.04604 48.8904 4.04604 48.8904M24.3051 63.913C24.3051 63.913 25.2705 65.0411 29.412 66.1177C33.5536 67.1943 49.0837 63.4259 49.0837 63.4259M24.3051 63.913C24.3051 63.913 21.7409 59.0678 26.9175 57.9912M4.04604 48.8904C4.04604 48.8904 2.20764 48.6934 1.45761 49.4289C0.427987 50.4385 1.45761 53.1973 1.45761 53.1973C1.45761 53.1973 7.66996 62.8858 14.9173 68.2693C22.1646 73.6528 34.0714 81.7279 42.8717 81.1897C51.672 80.6514 65.6494 69.3478 73.932 69.3478C82.2147 69.3478 81.1795 69.3478 81.1795 69.3478L82.2148 45.1221C82.2148 45.1221 71.2665 49.7333 64.0962 48.8905C61.4161 48.5755 57.3665 47.2755 57.3665 47.2755C57.3665 47.2755 53.5079 46.6636 51.1544 47.2755C44.9423 48.8905 34.5888 55.8889 34.5888 55.8889M4.04604 48.8904C4.04604 48.8904 2.23835 46.6585 3.01063 45.1221C4.04082 43.0726 8.70505 45.1221 8.70505 45.1221M8.70505 45.1221C8.83541 46.2447 19.9132 55.306 26.9175 57.9912M8.70505 45.1221C8.70505 45.1221 9.40118 43.5263 10.2581 42.9687C12.0472 41.8044 14.4909 43.7899 15.435 44.5819C18.8635 47.4582 32.9616 56.5813 34.5888 55.8889M26.9175 57.9912C29.7478 57.1502 34.5888 55.8889 34.5888 55.8889M74.4497 60.7342V65.5793M78.5911 53.7357V65.041" stroke="#1A1A1B" stroke-width="1.41243" stroke-linecap="round" stroke-linejoin="round"/>
<path d="M59.8045 32.4651C59.8045 36.0236 57.0374 38.8607 53.6816 38.8607C50.3259 38.8607 47.5588 36.0236 47.5588 32.4651C47.5588 28.9066 50.3259 26.0695 53.6816 26.0695C57.0374 26.0695 59.8045 28.9066 59.8045 32.4651Z" stroke="#BDD6E3" stroke-width="1.41243"/>
<path d="M56.8778 11.1597C56.8778 13.0373 55.421 14.5117 53.6816 14.5117C51.9423 14.5117 50.4855 13.0373 50.4855 11.1597C50.4855 9.28218 51.9423 7.80778 53.6816 7.80778C55.421 7.80778 56.8778 9.28218 56.8778 11.1597Z" stroke="#BDD6E3" stroke-width="1.41243"/>
<path d="M44.1951 14.7109C44.1951 22.4718 38.1521 28.7156 30.7553 28.7156C23.3586 28.7156 17.3156 22.4718 17.3156 14.7109C17.3156 6.95001 23.3586 0.706216 30.7553 0.706216C38.1521 0.706216 44.1951 6.95001 44.1951 14.7109Z" stroke="#BDD6E3" stroke-width="1.41243"/>
</svg>
