<svg width="58" height="83" viewBox="0 0 58 83" fill="none" xmlns="http://www.w3.org/2000/svg">
<path d="M24.3219 25.9961H12.378C11.223 24.1295 11.223 22.2419 12.378 20.3754C13.0435 19.2998 14.1343 18.2676 14.837 18.2676H22.2142C22.9166 18.2677 23.7444 19.3647 24.3219 20.3754C25.411 22.2812 25.411 24.0902 24.3219 25.9961Z" fill="#387FF7"/>
<circle cx="27.3206" cy="5.97198" r="5.26329" stroke="#BDD6E3" stroke-width="1.41739"/>
<circle cx="18.187" cy="11.5933" r="2.45294" stroke="#BDD6E3" stroke-width="1.41739"/>
<path d="M12.566 26.3476C17.2304 26.3476 19.8456 26.3476 24.51 26.3476M12.566 26.3476C11.411 24.481 11.411 22.5935 12.566 20.7269C13.2316 19.6514 14.3224 18.6192 15.0251 18.6192C15.7278 18.6192 21.6998 18.6191 22.4022 18.6192C23.1047 18.6192 23.9324 19.7162 24.51 20.7269C25.599 22.6327 25.599 24.4418 24.51 26.3476M12.566 26.3476C8.93034 26.2152 6.36895 28.2791 5.18887 31.617C4.50296 33.5572 4.5488 34.9307 5.18887 36.8864C5.97568 39.2906 8.87884 39.3301 9.40438 41.8045C9.6324 42.8781 9.47947 43.5199 9.40438 44.6149C9.40438 44.6149 -1.83672 59.0178 2.02723 69.5566C5.89118 80.0955 9.75568 81.5006 9.75568 81.5006H28.0229C28.0229 81.5006 32.5894 80.4468 35.4001 69.5566C38.2107 58.6665 28.3742 44.6149 28.3742 44.6149C28.3742 44.6149 28.1462 42.8781 28.3742 41.8045C28.8997 39.3301 31.8029 39.2906 32.5897 36.8864C33.2298 34.9307 33.2737 33.5578 32.5897 31.617C31.3377 28.0641 28.2661 26.0609 24.51 26.3476M6.59432 54.0997H30.4822M5.89174 56.9101H12.215M6.59432 73.7721H32.5897" stroke="#1A1A1B" stroke-width="1.41739" stroke-linecap="round" stroke-linejoin="round"/>
<path d="M57.1083 25.8495C56.6857 18.3623 47.5735 9.13281 47.5735 9.13281C47.5735 9.13281 38.6971 18.408 38.2832 25.8495C38.2307 26.7942 38.1509 27.3352 38.2832 28.2722C38.9323 32.8673 47.5735 35.7826 47.5735 35.7826C47.5735 35.7826 56.4503 32.9405 57.1083 28.2722C57.2404 27.3352 57.1617 26.7942 57.1083 25.8495Z" fill="#387FF7"/>
<path d="M47.5735 19.5505V25.8495M47.5735 44.2621V35.7826M47.5735 29.9681C49.4414 27.5154 50.5782 26.3565 52.9521 25.1227M47.5735 29.9681V25.8495M47.5735 29.9681V35.7826M47.5735 25.8495C45.7533 23.3792 44.5588 22.5919 42.195 21.9732M47.5735 35.7826C47.5735 35.7826 56.4503 32.9405 57.1083 28.2722C57.2404 27.3352 57.1617 26.7942 57.1083 25.8495C56.6857 18.3623 47.5735 9.13281 47.5735 9.13281C47.5735 9.13281 38.6971 18.408 38.2832 25.8495C38.2307 26.7942 38.1509 27.3352 38.2832 28.2722C38.9323 32.8673 47.5735 35.7826 47.5735 35.7826Z" stroke="#1A1A1B" stroke-width="1.41739" stroke-linecap="round" stroke-linejoin="round"/>
</svg>
