<svg width="255" height="133" viewBox="0 0 255 133" fill="none" xmlns="http://www.w3.org/2000/svg">
<path d="M118 97.5C118 117.106 102.106 133 82.5 133C62.8939 133 47 117.106 47 97.5C47 77.8939 62.8939 62 82.5 62C102.106 62 118 77.8939 118 97.5Z" fill="#387FF7"/>
<path d="M255 59C255 91.5848 228.809 118 196.5 118C164.191 118 138 91.5848 138 59C138 26.4152 164.191 0 196.5 0C228.809 0 255 26.4152 255 59Z" fill="#387FF7"/>
<path d="M28 62C28 69.732 21.732 76 14 76C6.26801 76 0 69.732 0 62C0 54.268 6.26801 48 14 48C21.732 48 28 54.268 28 62Z" fill="#387FF7"/>
</svg>
