<svg width="251" height="173" viewBox="0 0 251 173" fill="none" xmlns="http://www.w3.org/2000/svg">
<path d="M100 123C100 150.614 77.6142 173 50 173C22.3858 173 0 150.614 0 123C0 95.3858 22.3858 73 50 73C77.6142 73 100 95.3858 100 123Z" fill="#387FF7"/>
<path d="M251 36.5C251 56.6584 234.658 73 214.5 73C194.342 73 178 56.6584 178 36.5C178 16.3416 194.342 0 214.5 0C234.658 0 251 16.3416 251 36.5Z" fill="#387FF7"/>
<path d="M164 98C164 105.732 157.732 112 150 112C142.268 112 136 105.732 136 98C136 90.268 142.268 84 150 84C157.732 84 164 90.268 164 98Z" fill="#387FF7"/>
</svg>
