<svg width="64" height="83" viewBox="0 0 64 83" fill="none" xmlns="http://www.w3.org/2000/svg">
<path d="M63.1857 66.5358C62.7772 62.4513 57.4672 53.4648 57.4672 53.4648H27.6499C27.6499 53.4648 22.6087 60.4813 21.9315 65.7185C21.6452 67.9333 21.4514 69.256 21.9315 71.4369C22.8851 75.7681 23.9737 78.7891 28.8753 80.423C33.7769 82.0568 54.1997 81.6483 57.4672 80.423C60.7348 79.1976 61.5519 77.5641 62.3687 75.5215C63.1855 73.4788 63.5942 70.6204 63.1857 66.5358Z" fill="#387FF7"/>
<path d="M37.5691 25.2803H48.5975M37.5691 25.2803C35.1067 37.9131 32.6359 43.8333 27.3577 53.4638M37.5691 25.2803C36.6121 24.3232 35.7238 24.0401 35.1185 22.8295C34.2625 21.1175 34.2765 19.6471 35.1185 17.9281C35.3715 17.4116 35.7687 16.7027 36.3439 16.7027C37.1608 16.7027 37.5691 16.7027 37.5691 16.7027M48.5975 25.2803C50.6716 36.3785 52.8552 42.5251 57.175 53.4638M48.5975 25.2803C48.5975 25.2803 49.006 25.2803 49.4144 24.0549C49.8229 22.8295 49.8229 18.745 49.4144 17.9281C49.006 17.1112 48.1891 16.7027 48.1891 16.7027M57.175 53.4638C57.175 53.4638 62.485 62.4502 62.8935 66.5347C63.302 70.6193 62.8933 73.4777 62.0765 75.5204C61.2597 77.5631 60.4426 79.1965 57.175 80.4219C53.9075 81.6472 33.4847 82.0557 28.5831 80.4219C23.6815 78.788 22.5929 75.767 21.6393 71.4358C21.1592 69.2549 21.353 67.9322 21.6393 65.7174C22.3165 60.4802 27.3577 53.4638 27.3577 53.4638M57.175 53.4638H27.3577M48.1891 16.7027C48.1891 16.7027 47.864 14.9117 48.1891 13.8435C48.4599 12.9537 48.713 12.4435 49.4144 12.2097C50.1159 11.9759 56.3582 12.2101 56.3582 12.2101C56.3582 12.2101 56.7667 10.9847 55.9497 8.94203C55.1328 6.89936 51.4567 1.58943 44.9214 1.18136C38.3861 0.773295 29.8086 1.18136 29.8086 1.18136M48.1891 16.7027H37.5691M38.7946 18.745V22.8295M42.4707 18.745V22.8295M45.7383 18.745V22.8295M29.8086 1.18136V10.1674M29.8086 1.18136C29.8086 1.18136 26.5558 1.39815 24.9071 1.99866C23.6178 2.46828 22.8901 2.73876 22.4563 4.04056C22.0479 5.26631 22.0479 6.49168 22.4563 7.71705C22.8648 8.94242 23.2733 9.75923 24.4986 10.1674C25.724 10.5756 29.8086 10.1674 29.8086 10.1674M29.8086 10.1674C28.3973 18.062 25.6663 22.0132 20.4141 28.9564C27.6228 25.2962 31.305 22.4484 36.2955 13.8435M29.8086 10.1674C33.0764 10.6812 34.9108 11.5252 36.2955 13.8435M37.5691 16.7027C37.1703 15.5567 36.758 14.6179 36.2955 13.8435M28.5831 56.7318H36.7523M27.3577 59.1825H30.217" stroke="#1A1A1B" stroke-width="1.4" stroke-linecap="round" stroke-linejoin="round"/>
<circle cx="13.4698" cy="6.08311" r="4.20147" stroke="#BDD6E3" stroke-width="1.4"/>
<circle cx="3.25861" cy="13.0272" r="2.15919" stroke="#BDD6E3" stroke-width="1.4"/>
<circle cx="4.89189" cy="5.67509" r="1.34228" stroke="#BDD6E3" stroke-width="1.4"/>
</svg>
