<svg width="84" height="84" viewBox="0 0 84 84" fill="none" xmlns="http://www.w3.org/2000/svg">
<path d="M32.2067 17.1523C32.4717 17.7935 33.2828 18.2472 33.2828 18.2472M27.9023 29.9256L30.7719 33.2101M30.4132 28.8307C31.1306 28.8307 31.4893 29.1957 31.4893 29.9256" stroke="#1A1A1B" stroke-width="1.43478" stroke-linecap="round" stroke-linejoin="round"/>
<path d="M31.9434 13.75C33.5631 14.5335 34.057 15.1765 34.622 16.1772" stroke="#1A1A1B" stroke-width="1.43478" stroke-linecap="round" stroke-linejoin="round"/>
<path d="M64.4891 47.1475C65.9239 48.1733 66.2826 48.5382 67.3587 49.6331M61.6194 49.9985C62.6956 50.7284 62.6956 50.7284 63.4129 51.8233M53.3695 60.2171L56.239 63.1367" stroke="#1A1A1B" stroke-width="1.43478" stroke-linecap="round" stroke-linejoin="round"/>
<path d="M15.7065 52.817C18.3758 48.241 20.3696 40.0438 20.3696 40.0438L27.1848 42.9633C27.1848 42.9633 39.0217 30.5336 40.8152 29.4388C42.6087 28.344 43.3761 28.2776 44.0435 28.7303C45.1196 29.4602 44.2614 31.0158 43.6848 31.9934C42.6087 33.8182 31.8478 42.5984 32.9239 45.153C34 47.7077 45.837 33.4746 46.913 32.7447C47.9891 32.0148 48.9073 31.8554 49.7036 32.665C50.5 33.4746 49.9903 34.823 49.4239 35.6643C48.8576 36.5057 35.0761 50.6273 37.587 49.8974C40.0978 49.1675 48.3478 39.6788 49.7826 38.219C51.2174 36.7592 53.7283 35.2994 53.3696 38.219C53.0109 41.1386 41.8913 53.182 41.5326 53.5469C41.1739 53.9118 40.8152 54.2172 40.8152 54.6203C40.8152 55.3502 41.8913 55.0067 43.3261 53.9118C44.7609 52.817 51.2174 45.8615 53.0109 45.8615C54.8043 45.8615 54.087 47.3642 53.3696 48.4376C52.6522 49.511 40.8152 61.4663 40.8152 61.4663C40.8152 61.4663 37.881 65.2806 35.4348 67.05C32.5715 69.1212 30.2368 68.9293 27.1848 70.6995C21.3232 74.0993 14.2717 82.3779 14.2717 82.3779L1 67.05C1 67.05 11.661 59.7523 15.7065 52.817Z" fill="#387FF7"/>
<path d="M20.0109 39.7805C20.0109 39.7805 17.1413 48.9042 15.7065 52.9401C13.7454 58.4564 1 67.1731 1 67.1731L14.2717 82.501C14.2717 82.501 21.3232 74.2224 27.1848 70.8226C30.2368 69.0523 32.5715 69.2442 35.4348 67.1731C37.881 65.4037 40.8152 61.5894 40.8152 61.5894M20.0109 39.7805L27.1848 43.0864M20.0109 39.7805C20.0109 39.7805 13.3588 35.4622 12.1196 30.6782C10.5151 24.4841 13.5153 19.9873 17.8587 15.3503C22.3636 10.5408 26.7576 8.52603 33.2826 8.78118C44.4886 9.21937 44.0269 22.9683 52.2935 30.6782C59.0678 36.9963 67.3587 40.1668 70.9457 45.2761C74.5326 50.3854 73.0978 57.6844 68.4348 63.8886C63.7717 70.0927 56.3532 73.2737 49.0652 70.0927C44.8505 68.2531 40.8152 61.5894 40.8152 61.5894M22.8804 45.2761C22.8804 45.2761 24.7755 45.1772 25.75 44.5462C26.4185 44.1134 27.1848 43.0864 27.1848 43.0864M27.1848 43.0864C27.1848 43.0864 39.0217 30.6567 40.8152 29.5619C42.6087 28.4671 43.3761 28.4007 44.0435 28.8534C45.1196 29.5833 44.2614 31.1388 43.6848 32.1165C42.6087 33.9412 31.8478 42.7214 32.9239 45.2761C34 47.8308 45.837 33.5977 46.913 32.8678C47.9891 32.1379 48.9073 31.9785 49.7036 32.7881C50.5 33.5977 49.9903 34.946 49.4239 35.7874C48.8576 36.6288 35.0761 50.7504 37.587 50.0205C40.0978 49.2905 48.3478 39.8019 49.7826 38.3421C51.2174 36.8823 53.7283 35.4225 53.3696 38.3421C53.0109 41.2617 41.8913 53.3051 41.5326 53.67C41.1739 54.0349 40.8152 54.3403 40.8152 54.7434C40.8152 55.4733 41.8913 55.1298 43.3261 54.0349C44.7609 52.9401 51.2174 45.9846 53.0109 45.9846C54.8043 45.9846 54.087 47.4872 53.3696 48.5607C52.6522 49.6341 40.8152 61.5894 40.8152 61.5894" stroke="#1A1A1B" stroke-width="1.43478" stroke-linecap="round" stroke-linejoin="round"/>
<path d="M72.0213 9.85364C72.0213 14.9112 67.9948 18.9899 63.0539 18.9899C58.113 18.9899 54.0865 14.9112 54.0865 9.85364C54.0865 4.79609 58.113 0.717391 63.0539 0.717391C67.9948 0.717391 72.0213 4.79609 72.0213 9.85364Z" stroke="#BDD6E3" stroke-width="1.43478"/>
<path d="M82.7824 27.371C82.7824 31.2192 79.7195 34.3175 75.9672 34.3175C72.2149 34.3175 69.152 31.2192 69.152 27.371C69.152 23.5228 72.2149 20.4244 75.9672 20.4244C79.7195 20.4244 82.7824 23.5228 82.7824 27.371Z" stroke="#BDD6E3" stroke-width="1.43478"/>
<path d="M81.3475 5.474C81.3475 6.90354 80.2117 8.04115 78.8367 8.04115C77.4616 8.04115 76.3258 6.90354 76.3258 5.474C76.3258 4.04446 77.4616 2.90684 78.8367 2.90684C80.2117 2.90684 81.3475 4.04446 81.3475 5.474Z" stroke="#BDD6E3" stroke-width="1.43478"/>
<path d="M6.73926 67.1504L15.348 76.6391" stroke="#1A1A1B" stroke-width="1.43478" stroke-linecap="round" stroke-linejoin="round"/>
</svg>
