<svg width="211" height="158" viewBox="0 0 211 158" fill="none" xmlns="http://www.w3.org/2000/svg">
<path d="M117 99C117 131.585 90.8087 158 58.5 158C26.1913 158 0 131.585 0 99C0 66.4152 26.1913 40 58.5 40C90.8087 40 117 66.4152 117 99Z" fill="#1D6FFA"/>
<path d="M200 35.5C200 55.1061 184.106 71 164.5 71C144.894 71 129 55.1061 129 35.5C129 15.8939 144.894 0 164.5 0C184.106 0 200 15.8939 200 35.5Z" fill="#387FF7"/>
<path d="M211 99C211 106.732 204.732 113 197 113C189.268 113 183 106.732 183 99C183 91.268 189.268 85 197 85C204.732 85 211 91.268 211 99Z" fill="#387FF7"/>
</svg>
