<?xml version="1.0" standalone="no"?>
<!DOCTYPE svg PUBLIC "-//W3C//DTD SVG 20010904//EN"
 "http://www.w3.org/TR/2001/REC-SVG-20010904/DTD/svg10.dtd">
<svg version="1.0" xmlns="http://www.w3.org/2000/svg"
 width="700.000000pt" height="700.000000pt" viewBox="0 0 700.000000 700.000000"
 preserveAspectRatio="xMidYMid meet">
<metadata>
Created by potrace 1.14, written by Peter Selinger 2001-2017
</metadata>
<g transform="translate(0.000000,700.000000) scale(0.100000,-0.100000)"
fill="#000000" stroke="none">
<path d="M4808 6414 c-5 -4 -8 -20 -8 -35 0 -23 -5 -28 -37 -35 -33 -7 -35 -8
-13 -12 34 -5 50 -20 50 -48 0 -12 5 -26 10 -29 6 -4 10 6 10 22 0 36 16 53
50 54 22 0 21 2 -10 13 -28 10 -36 19 -40 45 -3 18 -8 29 -12 25z"/>
<path d="M2795 5891 c-385 -264 -773 -530 -862 -591 l-163 -111 0 -180 c0 -99
4 -179 9 -179 5 0 35 18 67 40 143 99 165 113 169 108 2 -2 -9 -69 -25 -149
-52 -249 -51 -439 5 -676 106 -447 406 -816 831 -1023 135 -66 298 -120 383
-127 l68 -6 6 89 c3 49 16 212 27 363 l22 275 -21 43 c-12 24 -21 53 -21 64 0
11 -12 36 -26 55 -21 26 -25 42 -22 71 4 30 0 41 -17 55 -13 10 -25 34 -29 58
-5 33 -10 40 -29 40 -47 0 -103 -24 -134 -56 l-32 -34 -5 32 c-3 18 -8 53 -11
76 -9 68 -39 116 -102 164 -69 52 -80 87 -39 119 32 25 33 57 4 95 -12 16 -23
30 -23 32 -1 1 -14 -2 -28 -7 -25 -10 -27 -8 -37 27 -14 53 -12 148 5 212 8
30 15 57 15 59 0 2 -10 0 -22 -4 -48 -14 -105 -27 -153 -33 l-50 -7 36 -40
c49 -54 79 -116 79 -162 0 -27 -12 -54 -45 -104 -51 -77 -71 -145 -61 -213 10
-62 51 -108 137 -152 46 -23 73 -44 84 -63 25 -49 19 -162 -20 -361 -19 -100
-35 -194 -35 -211 0 -16 -3 -29 -7 -29 -15 0 -117 87 -180 153 -199 210 -300
410 -348 692 -22 128 -22 339 0 460 31 172 123 396 198 478 18 20 255 187 527
373 272 185 514 350 536 365 l42 29 508 -346 c280 -190 529 -364 552 -387 75
-72 177 -305 219 -500 22 -101 25 -399 5 -492 -42 -194 -119 -372 -222 -517
-64 -90 -176 -216 -184 -207 -3 2 -10 54 -16 114 -14 140 -46 325 -66 392 -27
85 -91 146 -176 167 -41 9 -37 -22 6 -56 27 -22 35 -36 38 -70 3 -24 8 -52 12
-63 4 -11 -1 -6 -10 10 -10 17 -17 42 -15 56 2 20 -7 34 -32 55 -20 17 -38 42
-41 61 -4 17 -13 34 -21 37 -8 3 -11 13 -8 25 5 18 1 21 -28 21 -19 -1 -62 -9
-97 -18 l-63 -18 42 -33 c59 -48 120 -194 86 -206 -13 -5 -495 -95 -508 -95
-4 0 -15 26 -24 57 -13 45 -86 205 -101 222 -1 2 -23 -5 -48 -14 -32 -12 -58
-15 -89 -11 -94 14 -137 -41 -44 -58 45 -8 47 -10 47 -40 0 -21 8 -40 24 -55
19 -18 24 -32 23 -66 -2 -35 3 -49 26 -72 16 -17 27 -40 27 -56 0 -15 8 -40
18 -54 22 -34 20 -139 -8 -443 -11 -118 -22 -258 -26 -311 l-7 -97 58 -21
c195 -73 453 -72 673 3 138 47 322 155 322 188 0 38 -106 540 -156 740 -26
105 -30 153 -13 164 8 4 9 -3 5 -22 -4 -19 5 -66 24 -132 16 -56 43 -173 60
-260 47 -241 71 -342 82 -342 45 0 297 244 397 385 113 160 205 378 248 590
14 71 18 134 17 305 0 214 0 216 -36 348 -19 72 -33 132 -31 132 3 0 62 -40
132 -90 71 -49 133 -90 140 -90 8 0 11 49 9 183 l-3 182 -64 43 c-199 133
-379 258 -398 275 -22 20 -23 26 -23 204 l0 183 -172 -2 -173 -3 -3 -63 c-3
-61 -4 -62 -25 -51 -12 7 -173 116 -357 244 -375 260 -484 333 -503 340 -7 3
-327 -210 -712 -474z m-115 -1445 c-11 -33 -20 -63 -20 -68 0 -5 23 16 51 47
52 56 86 81 96 71 3 -3 0 -13 -7 -21 -12 -14 -10 -15 13 -10 37 10 34 -7 -7
-39 -19 -14 -40 -42 -46 -61 -12 -36 -5 -99 10 -90 4 2 20 -39 34 -92 44 -159
76 -217 107 -197 18 11 8 94 -21 181 -16 48 -30 92 -30 97 0 5 14 -3 30 -19
41 -39 57 -102 70 -260 5 -71 22 -182 35 -245 61 -275 75 -348 75 -400 0 -109
-35 -170 -99 -170 -66 0 -127 54 -173 156 -36 77 -31 218 12 399 40 172 45
273 15 325 -13 21 -56 59 -110 96 -101 69 -125 100 -125 161 0 54 12 85 63
161 48 71 57 64 27 -22z m1168 -905 l-3 -85 -42 -12 c-23 -7 -67 -16 -97 -19
l-56 -7 6 33 c17 93 70 168 139 200 40 18 40 18 48 -3 4 -12 6 -60 5 -107z
m153 99 c31 -22 68 -89 69 -121 0 -17 -37 -30 -127 -44 l-43 -7 0 49 c0 26 -3
72 -7 102 l-6 54 41 -5 c23 -3 55 -16 73 -28z m79 -257 c0 -38 3 -77 6 -88 4
-18 -5 -24 -77 -47 -46 -15 -85 -25 -88 -22 -3 2 -7 47 -9 98 l-4 94 63 15
c111 26 109 27 109 -50z m-213 -179 c-2 -2 -46 -17 -99 -32 l-96 -29 -6 30
c-3 16 -6 66 -6 111 l0 82 98 20 97 20 8 -99 c4 -55 6 -101 4 -103z"/>
<path d="M4515 6275 c-11 -72 -18 -82 -72 -90 -52 -8 -52 -8 40 -29 23 -6 27
-11 28 -44 1 -73 15 -80 28 -14 l12 62 37 0 c62 0 71 17 14 25 -50 7 -52 8
-57 43 -3 21 -10 51 -14 67 -8 29 -8 28 -16 -20z"/>
<path d="M4854 6054 c-8 -53 -12 -59 -34 -62 -14 -1 -41 -5 -60 -9 -34 -6 -33
-7 25 -17 l60 -11 11 -65 c11 -67 15 -65 29 22 5 31 10 37 35 42 100 20 100
19 35 31 -59 10 -60 11 -69 50 -16 78 -22 81 -32 19z"/>
<path d="M3443 5645 c-372 -81 -541 -514 -403 -1033 29 -108 65 -203 95 -249
l14 -21 62 18 c34 10 63 20 64 22 2 2 -8 30 -21 63 l-23 60 30 -35 c17 -19 38
-47 46 -62 15 -24 25 -27 97 -35 l81 -8 -1 -43 c-1 -52 -29 -93 -72 -107 -18
-5 -32 -13 -32 -18 0 -5 12 -29 26 -53 15 -25 37 -77 50 -117 27 -86 -8 -82
302 -31 l222 37 -6 36 c-13 69 -37 112 -88 156 l-51 45 0 62 c0 71 -14 62 148
94 88 17 227 74 227 93 0 5 -4 12 -9 16 -5 3 -24 24 -43 48 l-33 42 34 -28
c18 -15 47 -35 63 -43 26 -13 32 -14 51 -1 34 23 117 98 117 106 0 4 -24 18
-52 31 -74 33 -159 117 -197 194 -46 94 -55 147 -44 247 19 163 -16 278 -117
379 -124 124 -338 178 -537 135z m-2 -434 c31 -11 109 -27 175 -36 191 -26
276 -45 321 -71 58 -33 67 -67 60 -218 -9 -189 -50 -299 -148 -391 -69 -65
-147 -99 -204 -90 -114 17 -277 140 -330 249 -28 58 -65 194 -65 240 0 46 -13
61 -39 46 -18 -9 -16 -3 12 37 19 26 49 86 66 133 18 47 39 96 48 108 16 26
15 26 104 -7z m385 -978 c15 -41 16 -56 7 -76 -21 -45 -130 -61 -213 -32 -63
22 -130 67 -130 87 0 14 40 187 45 195 1 2 27 -6 58 -17 72 -25 91 -25 152 3
l50 24 6 -66 c4 -37 15 -90 25 -118z"/>
<path d="M3794 5101 c-30 -19 -52 -41 -39 -41 3 0 22 7 43 16 25 10 51 13 80
9 45 -7 57 6 23 25 -30 15 -73 12 -107 -9z"/>
<path d="M3360 5080 c-31 -31 -24 -39 20 -24 32 11 50 12 86 3 60 -15 67 -4
13 21 -56 25 -94 25 -119 0z"/>
<path d="M3782 5024 c-11 -5 -42 -55 -42 -69 0 -3 9 -1 20 5 12 6 20 7 20 1 0
-5 9 -7 20 -4 27 7 39 -25 16 -43 -24 -17 -12 -34 24 -34 32 0 60 31 60 65 0
15 9 24 32 30 45 14 49 40 6 41 -18 0 -58 4 -88 7 -30 4 -61 4 -68 1z"/>
<path d="M3355 4966 c-69 -23 -69 -23 -42 -35 16 -6 39 -11 53 -11 19 0 24 -5
24 -23 0 -45 60 -73 100 -47 13 8 12 12 -7 25 -32 22 -18 43 32 51 49 7 51 20
6 47 -39 23 -82 21 -166 -7z"/>
<path d="M3630 4647 c-58 -5 -106 -11 -108 -12 -9 -7 70 -103 93 -113 73 -34
155 3 175 79 6 21 15 39 20 39 6 0 10 5 10 10 0 11 -42 11 -190 -3z m101 -37
c-43 -36 -92 -38 -136 -6 -18 13 -14 14 48 14 37 0 71 3 74 6 4 3 13 6 22 6
12 -1 10 -6 -8 -20z"/>
<path d="M2561 5178 c20 -29 21 -31 3 -15 -24 20 -41 23 -27 5 6 -7 13 -21 16
-31 5 -14 3 -16 -11 -9 -22 12 -82 23 -82 16 0 -3 9 -19 21 -35 16 -22 17 -27
5 -23 -12 4 -15 2 -10 -9 4 -11 -2 -17 -23 -19 l-28 -4 28 -14 c30 -15 38 -33
10 -23 -15 5 -16 3 -5 -8 17 -18 15 -30 -3 -23 -24 10 -18 -6 20 -47 19 -21
46 -61 60 -89 20 -40 30 -50 50 -50 24 0 170 36 185 45 4 3 9 35 12 72 3 42
13 85 27 111 25 49 23 59 -10 42 -21 -12 -22 -11 -16 24 7 45 -5 46 -27 4
l-17 -33 4 55 c2 30 8 63 12 73 11 27 -9 20 -43 -14 l-29 -30 -7 23 -7 23 -10
-23 -9 -24 -35 31 c-20 17 -45 31 -56 31 -20 0 -20 -1 2 -32z"/>
<path d="M2181 2541 c-6 -10 -110 -268 -231 -573 -121 -304 -226 -564 -233
-577 -6 -13 -31 -33 -54 -43 -48 -21 -55 -29 -44 -46 5 -9 35 -12 102 -10 80
3 94 6 97 20 2 12 -6 21 -22 28 -14 5 -26 15 -26 22 0 7 25 74 54 148 l53 135
230 3 229 2 57 -146 c31 -81 54 -151 51 -156 -3 -4 -14 -8 -25 -8 -14 0 -19
-7 -19 -25 l0 -25 194 0 c153 0 195 3 199 13 8 20 -4 32 -43 43 -26 7 -41 20
-57 49 -12 22 -117 279 -233 570 -116 292 -218 545 -225 563 -16 36 -39 42
-54 13z m29 -576 c51 -126 94 -236 97 -242 4 -10 -39 -13 -196 -13 -111 0
-201 3 -201 7 0 22 194 493 201 486 4 -4 49 -111 99 -238z"/>
<path d="M5842 2548 c-5 -7 -112 -269 -238 -583 -125 -314 -236 -580 -247
-593 -12 -12 -35 -26 -51 -30 -21 -6 -31 -14 -31 -28 0 -15 10 -20 45 -26 50
-8 148 0 155 12 9 15 -7 40 -25 40 -11 0 -22 4 -25 10 -3 5 20 75 52 155 l57
145 229 -2 229 -3 54 -130 c29 -71 53 -138 54 -148 0 -10 -11 -22 -26 -27 -16
-7 -24 -16 -22 -28 4 -23 124 -34 278 -24 105 6 115 9 115 26 0 14 -10 22 -32
28 -17 5 -41 19 -51 33 -11 14 -124 286 -252 605 -137 342 -237 580 -245 580
-7 0 -17 -6 -23 -12z m-75 -836 c-110 -1 -201 -1 -203 1 -2 2 42 117 98 256
l101 253 102 -253 101 -254 -199 -3z"/>
<path d="M2877 2533 c-63 -4 -68 -6 -65 -26 2 -13 12 -23 28 -27 49 -12 50
-19 50 -567 0 -291 -4 -522 -9 -536 -6 -14 -23 -29 -41 -36 -22 -7 -31 -16
-28 -28 3 -16 20 -18 191 -21 182 -2 187 -2 187 18 0 13 -11 25 -35 34 l-35
15 0 260 0 261 130 0 c124 0 130 -1 144 -23 37 -56 48 -112 55 -282 6 -155 9
-174 31 -213 34 -61 95 -95 169 -95 74 0 141 34 141 73 0 20 -26 34 -35 20 -9
-14 -52 -12 -62 3 -4 6 -8 80 -9 162 -1 165 -9 200 -65 281 -17 25 -51 58 -75
74 -44 28 -44 28 -18 34 44 11 148 123 167 180 21 62 22 170 2 226 -30 85
-110 165 -194 195 -42 14 -479 27 -624 18z m549 -78 c67 -102 69 -375 4 -483
l-20 -32 -145 0 -145 0 0 270 0 270 145 0 c142 0 145 0 161 -25z"/>
<path d="M5100 2531 c-55 -7 -60 -29 -12 -50 18 -8 35 -24 38 -35 2 -12 3
-183 2 -381 l-3 -360 -143 210 c-79 116 -205 300 -281 410 l-137 200 -169 0
c-152 0 -170 -2 -173 -17 -2 -12 8 -20 37 -28 l41 -11 0 -544 c0 -532 0 -545
-20 -565 -11 -11 -26 -20 -34 -20 -16 0 -30 -30 -19 -41 9 -8 95 -14 156 -11
30 2 37 6 37 22 0 11 -8 23 -17 27 -10 3 -26 13 -35 21 -17 14 -18 52 -18 540
l0 525 388 -564 c339 -493 390 -564 415 -567 l27 -3 0 575 c0 316 3 581 6 590
3 8 21 20 40 26 52 18 46 46 -12 54 -26 3 -52 5 -58 4 -6 0 -31 -4 -56 -7z"/>
<path d="M552 2508 c2 -15 11 -24 25 -26 53 -8 53 -4 53 -570 0 -322 -4 -530
-10 -542 -5 -10 -23 -23 -40 -28 -29 -11 -40 -35 -20 -47 5 -3 89 -7 186 -7
139 -1 178 2 184 13 10 15 -6 39 -26 39 -7 0 -20 7 -28 16 -13 12 -16 39 -16
133 l0 117 46 64 c26 36 56 75 67 87 l20 23 55 -93 c95 -161 182 -321 182
-333 0 -6 -9 -14 -21 -17 -13 -4 -20 -12 -17 -24 3 -17 18 -18 203 -18 188 0
200 1 200 18 0 13 -13 23 -40 33 -22 7 -50 26 -62 41 -41 51 -345 594 -340
607 12 30 329 447 352 462 14 9 40 20 58 23 23 5 33 13 35 29 3 21 1 22 -97
22 -93 0 -101 -1 -101 -20 0 -10 8 -23 17 -28 21 -13 42 18 -287 -423 l-270
-361 0 380 c0 399 0 395 45 404 12 2 21 13 23 26 l3 22 -191 0 -191 0 3 -22z"/>
<path d="M3825 2520 c-8 -13 12 -40 31 -40 7 0 20 -7 28 -16 14 -14 16 -78 16
-553 0 -508 -1 -539 -18 -554 -10 -10 -26 -17 -34 -17 -19 0 -29 -22 -18 -40
12 -20 359 -18 371 2 14 21 11 25 -28 45 l-38 18 -3 530 c-1 292 0 539 2 551
3 11 20 27 38 35 18 8 33 21 33 29 0 13 -29 15 -187 18 -124 2 -189 -1 -193
-8z"/>
<path d="M2630 815 c0 -188 1 -195 20 -195 19 0 20 7 20 99 0 84 3 102 21 125
26 32 84 36 120 7 22 -18 24 -28 27 -125 4 -96 6 -106 23 -106 18 0 19 8 19
110 l0 110 -33 36 c-39 43 -96 55 -145 30 l-32 -17 0 61 c0 53 -2 60 -20 60
-19 0 -20 -7 -20 -195z"/>
<path d="M3020 975 c0 -28 4 -35 20 -35 16 0 20 7 20 35 0 28 -4 35 -20 35
-16 0 -20 -7 -20 -35z"/>
<path d="M3510 961 c0 -50 -1 -51 -30 -51 -23 0 -30 -4 -30 -20 0 -16 7 -20
30 -20 l30 0 0 -126 c0 -124 0 -125 23 -122 21 3 22 7 25 126 l3 122 29 0 c23
0 30 4 30 20 0 15 -7 20 -29 20 -28 0 -30 2 -33 48 -3 40 -6 47 -25 50 -21 3
-23 0 -23 -47z"/>
<path d="M4480 975 c0 -31 3 -35 25 -35 22 0 25 4 25 35 0 31 -3 35 -25 35
-22 0 -25 -4 -25 -35z"/>
<path d="M4717 990 c-14 -11 -28 -34 -32 -50 -5 -21 -13 -30 -26 -30 -12 0
-19 -7 -19 -20 0 -13 7 -20 20 -20 19 0 20 -7 20 -126 0 -124 0 -125 23 -122
21 3 22 7 25 126 l3 122 34 0 c28 0 35 4 35 20 0 16 -7 20 -36 20 -31 0 -35 3
-32 23 2 15 13 25 36 32 21 6 32 15 32 27 0 25 -50 24 -83 -2z"/>
<path d="M2295 906 c-44 -19 -82 -68 -90 -116 -5 -32 -2 -50 17 -87 31 -63 74
-85 151 -80 49 3 62 8 92 37 19 19 35 38 35 42 0 16 -40 7 -77 -18 -76 -52
-173 -3 -173 87 0 88 108 133 178 74 29 -24 72 -34 72 -16 0 4 -10 21 -22 36
-40 51 -120 69 -183 41z"/>
<path d="M3216 899 c-52 -41 -27 -126 42 -144 37 -9 52 -24 52 -49 0 -49 -47
-61 -78 -21 -11 14 -27 25 -36 25 -24 0 -19 -37 9 -65 48 -49 135 -25 151 42
12 47 -7 76 -69 105 -31 15 -57 32 -57 37 0 44 50 56 79 19 19 -22 41 -18 41
8 0 8 -11 26 -25 39 -30 31 -73 32 -109 4z"/>
<path d="M3802 903 c-47 -23 -75 -67 -79 -127 -7 -89 57 -156 148 -156 151 0
205 199 74 275 -48 29 -96 31 -143 8z m137 -59 c27 -22 31 -32 31 -72 0 -50
-18 -81 -57 -101 -50 -25 -116 1 -139 55 -18 42 -10 80 24 117 35 37 97 38
141 1z"/>
<path d="M3020 765 c0 -138 1 -145 20 -145 19 0 20 7 20 145 0 138 -1 145 -20
145 -19 0 -20 -7 -20 -145z"/>
<path d="M4480 764 c0 -145 0 -145 23 -142 21 3 22 6 25 146 l3 142 -26 0 -25
0 0 -146z"/>
<path d="M4117 594 c-4 -4 -7 -13 -7 -21 0 -10 29 -13 136 -13 124 0 135 2
132 18 -3 15 -18 17 -129 20 -69 1 -128 -1 -132 -4z"/>
</g>
</svg>
